<svg width="15" height="24" viewBox="0 0 15 24" fill="none" xmlns="http://www.w3.org/2000/svg">
<mask id="path-1-outside-1_1096_6259" maskUnits="userSpaceOnUse" x="0" y="0" width="15" height="24" fill="black">
<rect fill="white" width="15" height="24"/>
<path fill-rule="evenodd" clip-rule="evenodd" d="M12.2224 23.4448H3.06249C1.92518 23.4448 1 22.5195 1 21.3823V3.06249C1 1.92525 1.92518 1 3.06249 1H12.2224C13.3597 1 14.2849 1.92525 14.2849 3.06249V21.3823C14.2849 22.5195 13.3597 23.4448 12.2224 23.4448ZM3.06249 1.69001C2.30577 1.69001 1.69001 2.3057 1.69001 3.06249V21.3823C1.69001 22.1391 2.30577 22.7548 3.06249 22.7548H12.2224C12.9791 22.7548 13.5949 22.1391 13.5949 21.3823V3.06249C13.5949 2.3057 12.9791 1.69001 12.2224 1.69001H3.06249ZM11.2172 17.4217H4.06766C3.8771 17.4217 3.72266 17.2672 3.72266 17.0767V5.11649C3.72266 4.92593 3.8771 4.77148 4.06766 4.77148H11.2172C11.4078 4.77148 11.5622 4.92593 11.5622 5.11649V17.0767C11.5622 17.2672 11.4078 17.4217 11.2172 17.4217ZM4.41267 16.7317H10.8722V5.4615H4.41267V16.7317ZM6.06773 21.1548H9.50269C9.69326 21.1548 9.8477 21.0003 9.8477 20.8098C9.8477 20.6192 9.69326 20.4647 9.50269 20.4647H6.06773C5.87717 20.4647 5.72272 20.6192 5.72272 20.8098C5.72272 21.0003 5.87717 21.1548 6.06773 21.1548Z"/>
</mask>
<path fill-rule="evenodd" clip-rule="evenodd" d="M12.2224 23.4448H3.06249C1.92518 23.4448 1 22.5195 1 21.3823V3.06249C1 1.92525 1.92518 1 3.06249 1H12.2224C13.3597 1 14.2849 1.92525 14.2849 3.06249V21.3823C14.2849 22.5195 13.3597 23.4448 12.2224 23.4448ZM3.06249 1.69001C2.30577 1.69001 1.69001 2.3057 1.69001 3.06249V21.3823C1.69001 22.1391 2.30577 22.7548 3.06249 22.7548H12.2224C12.9791 22.7548 13.5949 22.1391 13.5949 21.3823V3.06249C13.5949 2.3057 12.9791 1.69001 12.2224 1.69001H3.06249ZM11.2172 17.4217H4.06766C3.8771 17.4217 3.72266 17.2672 3.72266 17.0767V5.11649C3.72266 4.92593 3.8771 4.77148 4.06766 4.77148H11.2172C11.4078 4.77148 11.5622 4.92593 11.5622 5.11649V17.0767C11.5622 17.2672 11.4078 17.4217 11.2172 17.4217ZM4.41267 16.7317H10.8722V5.4615H4.41267V16.7317ZM6.06773 21.1548H9.50269C9.69326 21.1548 9.8477 21.0003 9.8477 20.8098C9.8477 20.6192 9.69326 20.4647 9.50269 20.4647H6.06773C5.87717 20.4647 5.72272 20.6192 5.72272 20.8098C5.72272 21.0003 5.87717 21.1548 6.06773 21.1548Z" fill="#64748B"/>
<path d="M14.2849 21.3823L14.0849 21.3823L14.0849 21.3823L14.2849 21.3823ZM10.8722 16.7317V16.9317H11.0722V16.7317H10.8722ZM4.41267 16.7317H4.21267V16.9317H4.41267V16.7317ZM10.8722 5.4615H11.0722V5.2615H10.8722V5.4615ZM4.41267 5.4615V5.2615H4.21267V5.4615H4.41267ZM3.06249 23.6448H12.2224V23.2448H3.06249V23.6448ZM0.8 21.3823C0.8 22.63 1.81472 23.6448 3.06249 23.6448V23.2448C2.03564 23.2448 1.2 22.4091 1.2 21.3823H0.8ZM0.8 3.06249V21.3823H1.2V3.06249H0.8ZM3.06249 0.8C1.81472 0.8 0.8 1.8148 0.8 3.06249H1.2C1.2 2.0357 2.03564 1.2 3.06249 1.2V0.8ZM12.2224 0.8H3.06249V1.2H12.2224V0.8ZM14.4849 3.06249C14.4849 1.8148 13.4702 0.8 12.2224 0.8V1.2C13.2492 1.2 14.0849 2.0357 14.0849 3.06249H14.4849ZM14.4849 21.3823V3.06249H14.0849V21.3823H14.4849ZM12.2224 23.6448C13.4702 23.6448 14.4849 22.63 14.4849 21.3823L14.0849 21.3823C14.0849 22.4091 13.2492 23.2448 12.2224 23.2448V23.6448ZM1.89001 3.06249C1.89001 2.41616 2.41622 1.89001 3.06249 1.89001V1.49001C2.19532 1.49001 1.49001 2.19524 1.49001 3.06249H1.89001ZM1.89001 21.3823V3.06249H1.49001V21.3823H1.89001ZM3.06249 22.5548C2.41622 22.5548 1.89001 22.0286 1.89001 21.3823H1.49001C1.49001 22.2495 2.19532 22.9548 3.06249 22.9548V22.5548ZM12.2224 22.5548H3.06249V22.9548H12.2224V22.5548ZM13.3949 21.3823C13.3949 22.0286 12.8687 22.5548 12.2224 22.5548V22.9548C13.0896 22.9548 13.7949 22.2495 13.7949 21.3823H13.3949ZM13.3949 3.06249V21.3823H13.7949V3.06249H13.3949ZM12.2224 1.89001C12.8687 1.89001 13.3949 2.41616 13.3949 3.06249H13.7949C13.7949 2.19524 13.0896 1.49001 12.2224 1.49001V1.89001ZM3.06249 1.89001H12.2224V1.49001H3.06249V1.89001ZM4.06766 17.6217H11.2172V17.2217H4.06766V17.6217ZM3.52266 17.0767C3.52266 17.3777 3.76664 17.6217 4.06766 17.6217V17.2217C3.98756 17.2217 3.92266 17.1568 3.92266 17.0767H3.52266ZM3.52266 5.11649V17.0767H3.92266V5.11649H3.52266ZM4.06766 4.57148C3.76664 4.57148 3.52266 4.81547 3.52266 5.11649H3.92266C3.92266 5.03639 3.98756 4.97148 4.06766 4.97148V4.57148ZM11.2172 4.57148H4.06766V4.97148H11.2172V4.57148ZM11.7622 5.11649C11.7622 4.81547 11.5183 4.57148 11.2172 4.57148V4.97148C11.2973 4.97148 11.3622 5.03639 11.3622 5.11649H11.7622ZM11.7622 17.0767V5.11649H11.3622V17.0767H11.7622ZM11.2172 17.6217C11.5183 17.6217 11.7622 17.3777 11.7622 17.0767H11.3622C11.3622 17.1568 11.2973 17.2217 11.2172 17.2217V17.6217ZM10.8722 16.5317H4.41267V16.9317H10.8722V16.5317ZM10.6722 5.4615V16.7317H11.0722V5.4615H10.6722ZM4.41267 5.6615H10.8722V5.2615H4.41267V5.6615ZM4.61267 16.7317V5.4615H4.21267V16.7317H4.61267ZM9.50269 20.9548H6.06773V21.3548H9.50269V20.9548ZM9.6477 20.8098C9.6477 20.8899 9.5828 20.9548 9.50269 20.9548V21.3548C9.80371 21.3548 10.0477 21.1108 10.0477 20.8098H9.6477ZM9.50269 20.6647C9.5828 20.6647 9.6477 20.7296 9.6477 20.8098H10.0477C10.0477 20.5087 9.80371 20.2647 9.50269 20.2647V20.6647ZM6.06773 20.6647H9.50269V20.2647H6.06773V20.6647ZM5.92272 20.8098C5.92272 20.7296 5.98763 20.6647 6.06773 20.6647V20.2647C5.76671 20.2647 5.52272 20.5087 5.52272 20.8098H5.92272ZM6.06773 20.9548C5.98763 20.9548 5.92272 20.8899 5.92272 20.8098H5.52272C5.52272 21.1108 5.76671 21.3548 6.06773 21.3548V20.9548Z" fill="#64748B" mask="url(#path-1-outside-1_1096_6259)"/>
</svg>
