<svg width="30" height="30" viewBox="0 0 30 30" fill="none" xmlns="http://www.w3.org/2000/svg">
<path d="M25.5187 4.48126C23.4383 2.4011 20.7878 0.984547 17.9024 0.410715C15.017 -0.163118 12.0262 0.131546 9.30821 1.25744C6.59025 2.38334 4.26718 4.28991 2.63276 6.73606C0.998342 9.18221 0.125977 12.0581 0.125977 15C0.125977 17.9419 0.998342 20.8178 2.63276 23.264C4.26718 25.7101 6.59025 27.6167 9.30821 28.7426C12.0262 29.8685 15.017 30.1631 17.9024 29.5893C20.7878 29.0155 23.4383 27.5989 25.5187 25.5188C26.9001 24.1375 27.9959 22.4976 28.7435 20.6928C29.4912 18.888 29.876 16.9535 29.876 15C29.876 13.0465 29.4912 11.1121 28.7435 9.30724C27.9959 7.50242 26.9001 5.86255 25.5187 4.48126ZM20.3124 18.7613C20.4186 18.8606 20.5032 18.9808 20.561 19.1142C20.6189 19.2476 20.6487 19.3915 20.6487 19.5369C20.6487 19.6823 20.6189 19.8262 20.561 19.9596C20.5032 20.093 20.4186 20.2131 20.3124 20.3125C20.2131 20.411 20.0954 20.4889 19.9659 20.5418C19.8365 20.5946 19.6979 20.6214 19.558 20.6206C19.2793 20.6195 19.0122 20.5088 18.8143 20.3125L14.9999 16.4981L11.2387 20.3125C11.0408 20.5088 10.7736 20.6195 10.4949 20.6206C10.3551 20.6214 10.2165 20.5946 10.087 20.5418C9.95755 20.4889 9.83981 20.411 9.74053 20.3125C9.54264 20.1134 9.43156 19.8441 9.43156 19.5634C9.43156 19.2827 9.54264 19.0135 9.74053 18.8144L13.5018 15L9.74053 11.2388C9.56646 11.0355 9.47551 10.774 9.48583 10.5066C9.49616 10.2392 9.60702 9.98557 9.79624 9.79635C9.98547 9.60712 10.2391 9.49627 10.5065 9.48594C10.7739 9.47561 11.0354 9.56657 11.2387 9.74063L14.9999 13.5019L18.7612 9.74063C18.8595 9.63878 18.977 9.55729 19.1068 9.50083C19.2367 9.44437 19.3764 9.41404 19.518 9.41158C19.6596 9.40911 19.8003 9.43455 19.932 9.48646C20.0637 9.53836 20.184 9.6157 20.2858 9.71407C20.3877 9.81244 20.4692 9.92991 20.5256 10.0598C20.5821 10.1896 20.6124 10.3293 20.6149 10.4709C20.6174 10.6125 20.5919 10.7532 20.54 10.8849C20.4881 11.0167 20.4108 11.1369 20.3124 11.2388L16.498 15L20.3124 18.7613Z" fill="#969696"/>
</svg>
