<svg width="17" height="22" viewBox="0 0 17 22" fill="none" xmlns="http://www.w3.org/2000/svg">
<path d="M16.2056 4.92239L16.2063 4.92194L16.2005 4.91619L11.6123 0.327966C11.5101 0.225737 11.3761 0.194375 11.247 0.194375H3.29411C2.01742 0.194375 0.96 1.25179 0.96 2.52849V18.7402C0.96 20.0169 2.01742 21.0743 3.29411 21.0743H14C15.2767 21.0743 16.3341 20.0169 16.3341 18.7402V5.28144C16.3341 5.14762 16.2678 5.01641 16.2056 4.92239ZM11.7459 3.44627V1.89156L14.6371 4.78274H13.0823C12.3397 4.78274 11.7459 4.18888 11.7459 3.44627ZM1.95766 18.7402V2.5285C1.95766 1.78589 2.55151 1.19203 3.29413 1.19203H10.7482V3.44615C10.7482 4.72284 11.8056 5.78026 13.0823 5.78026H15.3365V18.7402C15.3365 19.4829 14.7426 20.0767 14 20.0767H3.29413C2.55151 20.0767 1.95766 19.4829 1.95766 18.7402Z" fill="#64748B" stroke="#64748B" stroke-width="0.08"/>
<path d="M5.83285 10.6139H8.64671C8.91375 10.6139 9.14554 10.3821 9.14554 10.1151C9.14554 9.84804 8.91375 9.61625 8.64671 9.61625H5.83285C5.56581 9.61625 5.33402 9.84804 5.33402 10.1151C5.33402 10.3821 5.56581 10.6139 5.83285 10.6139Z" fill="#64748B" stroke="#64748B" stroke-width="0.08"/>
<path d="M11.4605 12.4307H5.83285C5.56581 12.4307 5.33402 12.6625 5.33402 12.9295C5.33402 13.1966 5.56581 13.4283 5.83285 13.4283H11.4308C11.6978 13.4283 11.9296 13.1966 11.9296 12.9295C11.9296 12.666 11.7309 12.4307 11.4605 12.4307Z" fill="#64748B" stroke="#64748B" stroke-width="0.08"/>
<path d="M11.4605 15.2432H5.83285C5.56581 15.2432 5.33402 15.475 5.33402 15.742C5.33402 16.0091 5.56581 16.2408 5.83285 16.2408H11.4308C11.6978 16.2408 11.9296 16.0091 11.9296 15.742C11.9296 15.4785 11.7309 15.2432 11.4605 15.2432Z" fill="#64748B" stroke="#64748B" stroke-width="0.08"/>
</svg>
