<svg width="21" height="16" viewBox="0 0 21 16" fill="none" xmlns="http://www.w3.org/2000/svg">
<mask id="path-1-outside-1_1096_6265" maskUnits="userSpaceOnUse" x="0" y="-0.554688" width="21" height="16" fill="black">
<rect fill="white" y="-0.554688" width="21" height="16"/>
<path d="M1.26034 12.7928L1.25514 12.7844L1.2541 12.7824L1.24993 12.7751L1.24889 12.773L1.24576 12.7657L1.24472 12.7636L1.2416 12.7563L1.24056 12.7542L1.23743 12.747L1.23639 12.7449L1.23327 12.7376L1.23223 12.7355L1.23014 12.7282L1.2291 12.7261L1.22702 12.7188L1.2239 12.7095L1.22285 12.7074L1.22077 12.698V12.697C1.14892 12.4502 1.09373 12.1961 1.05623 11.9388C1.01979 11.6785 1 11.414 1 11.1495C1 9.68117 1.57482 8.34923 2.50269 7.38497C3.04629 6.81951 3.71277 6.38006 4.45525 6.11139C4.27822 5.99476 4.11474 5.86146 3.96582 5.71254L3.96374 5.71046C3.40661 5.15123 3.06087 4.38063 3.06087 3.53087C3.06087 2.68007 3.40661 1.90947 3.96581 1.35024C4.52294 0.791015 5.29461 0.44634 6.14644 0.44634C6.99828 0.44634 7.76993 0.792081 8.32811 1.3492L8.34998 1.37315C8.89567 1.93027 9.23202 2.69256 9.23202 3.53088C9.23202 4.38064 8.88628 5.15229 8.32812 5.71151L8.32604 5.71359C8.17712 5.86251 8.01258 5.99581 7.8366 6.1114C7.92616 6.14368 8.01572 6.17909 8.1032 6.21658C8.61867 6.43631 9.09353 6.74144 9.50903 7.1132C9.92246 6.83933 10.4192 6.67999 10.9513 6.67999C11.4554 6.67999 11.926 6.82266 12.3259 7.06842C12.7404 6.70705 13.2101 6.41132 13.7193 6.19888C13.7943 6.16763 13.8703 6.13744 13.9484 6.11036C13.7714 5.99373 13.6079 5.86043 13.4579 5.71152L13.4558 5.70943C12.8987 5.15021 12.553 4.3796 12.553 3.52984C12.553 2.67905 12.8987 1.90844 13.4579 1.34921C14.015 0.789987 14.7867 0.445312 15.6386 0.445312C16.4904 0.445312 17.262 0.791054 17.8202 1.34817L17.8421 1.37213C18.3878 1.92925 18.7241 2.69153 18.7241 3.52985C18.7241 4.37961 18.3784 5.15126 17.8202 5.71048L17.8181 5.71257C17.6692 5.86148 17.5057 5.99478 17.3287 6.11037C18.0723 6.378 18.7377 6.81849 19.2823 7.38396C20.2102 8.34827 20.785 9.68018 20.785 11.1485C20.785 11.413 20.7652 11.6785 20.7288 11.9389C20.6913 12.2003 20.635 12.4575 20.5611 12.7064V12.7084L20.559 12.7168L20.558 12.7188L20.5559 12.7261L20.5549 12.7282L20.5517 12.7355L20.5507 12.7376L20.5476 12.7449L20.5465 12.747L20.5434 12.7543L20.5424 12.7563L20.5392 12.7636L20.5382 12.7657L20.534 12.773L20.533 12.7751L20.5288 12.7824L20.5278 12.7845L20.5174 12.8011V12.8022C20.2956 13.2093 19.8832 13.5592 19.3229 13.8539C17.2194 14.9619 13.2985 15.2338 10.8909 15.2338C8.46245 15.2338 4.56473 14.962 2.46 13.8539C1.89662 13.5571 1.48215 13.2031 1.26139 12.7928L1.26034 12.7928ZM19.8041 12.4409C19.8604 12.243 19.9041 12.0379 19.9343 11.8265C19.9655 11.6099 19.9812 11.3828 19.9812 11.1485C19.9812 9.89265 19.4928 8.75753 18.7034 7.93691C17.9182 7.12048 16.8331 6.61543 15.6355 6.61543C15.0648 6.61543 14.5202 6.72998 14.0234 6.9372C13.6298 7.10174 13.2653 7.32354 12.9383 7.59325C13.333 8.05251 13.5715 8.64919 13.5715 9.30215C13.5715 10.0259 13.2778 10.682 12.804 11.1558C12.7009 11.2589 12.5905 11.3526 12.4718 11.437C12.8519 11.5984 13.206 11.816 13.5267 12.0795C14.189 12.6231 14.7076 13.3625 15.0023 14.1841C16.631 13.9727 18.0391 13.627 18.9511 13.1469C19.3624 12.9303 19.6581 12.6939 19.8039 12.4398L19.8041 12.4409ZM14.1849 14.2778C13.9319 13.6624 13.5268 13.1105 13.0207 12.696C12.4396 12.219 11.7231 11.9254 10.9494 11.9254C10.1715 11.9254 9.45088 12.2212 8.86771 12.7012C8.36266 13.1167 7.95965 13.6697 7.70866 14.2893C8.72815 14.3862 9.80806 14.4341 10.8901 14.4341C12.0117 14.4341 13.1322 14.382 14.1839 14.2779L14.1849 14.2778ZM6.88916 14.1987C7.17969 13.3729 7.69831 12.6314 8.36268 12.0847C8.6855 11.8192 9.04374 11.5984 9.42801 11.437C9.31033 11.3526 9.1989 11.2589 9.09685 11.1569C8.62304 10.683 8.32936 10.027 8.32936 9.30322C8.32936 8.67839 8.54909 8.1046 8.91461 7.65369C8.57825 7.3642 8.20022 7.12571 7.79098 6.95077C7.28489 6.73521 6.72982 6.6165 6.14769 6.6165C4.95012 6.6165 3.86501 7.12155 3.07977 7.93798C2.29042 8.75858 1.802 9.89471 1.802 11.1496C1.802 11.3829 1.81866 11.6089 1.84886 11.8265C1.87906 12.0379 1.92384 12.2451 1.98008 12.443C2.12691 12.695 2.4216 12.9314 2.83191 13.148C3.76394 13.6385 5.21456 13.9894 6.89022 14.1998L6.88916 14.1987ZM12.2386 8.01407C11.9095 7.68499 11.4534 7.47985 10.9494 7.47985C10.4464 7.47985 9.99025 7.68396 9.66119 8.01407C9.33107 8.34315 9.12697 8.79926 9.12697 9.30327C9.12697 9.80625 9.33108 10.2624 9.66119 10.5914C9.99027 10.9205 10.4464 11.1257 10.9494 11.1257C11.4523 11.1257 11.9085 10.9216 12.2386 10.5914C12.5676 10.2624 12.7728 9.80625 12.7728 9.30327C12.7728 8.8003 12.5687 8.34416 12.2386 8.01407ZM17.2529 1.91475C16.8394 1.50132 16.2677 1.24515 15.6367 1.24515C15.0056 1.24515 14.4339 1.50133 14.0205 1.91475C13.606 2.32714 13.3509 2.89884 13.3509 3.53095C13.3509 4.16307 13.606 4.73477 14.0184 5.14716C14.4318 5.56163 15.0035 5.81675 15.6356 5.81675C16.2677 5.81675 16.8394 5.56162 17.2518 5.14924C17.6663 4.73581 17.9214 4.16411 17.9214 3.53095C17.9214 2.90822 17.6736 2.34484 17.2726 1.93349L17.2529 1.91475ZM7.76171 1.91475C7.34828 1.50132 6.77658 1.24515 6.14551 1.24515C5.51443 1.24515 4.94273 1.50133 4.5293 1.91475C4.11483 2.32714 3.85971 2.89884 3.85971 3.53095C3.85971 4.16307 4.11484 4.73477 4.52722 5.14716C4.94065 5.56163 5.51235 5.81675 6.14447 5.81675C6.77658 5.81675 7.34828 5.56162 7.76067 5.14924C8.17514 4.73581 8.43027 4.16411 8.43027 3.53095C8.43027 2.90822 8.18242 2.34484 7.78149 1.93349L7.76171 1.91475Z"/>
</mask>
<path d="M1.26034 12.7928L1.25514 12.7844L1.2541 12.7824L1.24993 12.7751L1.24889 12.773L1.24576 12.7657L1.24472 12.7636L1.2416 12.7563L1.24056 12.7542L1.23743 12.747L1.23639 12.7449L1.23327 12.7376L1.23223 12.7355L1.23014 12.7282L1.2291 12.7261L1.22702 12.7188L1.2239 12.7095L1.22285 12.7074L1.22077 12.698V12.697C1.14892 12.4502 1.09373 12.1961 1.05623 11.9388C1.01979 11.6785 1 11.414 1 11.1495C1 9.68117 1.57482 8.34923 2.50269 7.38497C3.04629 6.81951 3.71277 6.38006 4.45525 6.11139C4.27822 5.99476 4.11474 5.86146 3.96582 5.71254L3.96374 5.71046C3.40661 5.15123 3.06087 4.38063 3.06087 3.53087C3.06087 2.68007 3.40661 1.90947 3.96581 1.35024C4.52294 0.791015 5.29461 0.44634 6.14644 0.44634C6.99828 0.44634 7.76993 0.792081 8.32811 1.3492L8.34998 1.37315C8.89567 1.93027 9.23202 2.69256 9.23202 3.53088C9.23202 4.38064 8.88628 5.15229 8.32812 5.71151L8.32604 5.71359C8.17712 5.86251 8.01258 5.99581 7.8366 6.1114C7.92616 6.14368 8.01572 6.17909 8.1032 6.21658C8.61867 6.43631 9.09353 6.74144 9.50903 7.1132C9.92246 6.83933 10.4192 6.67999 10.9513 6.67999C11.4554 6.67999 11.926 6.82266 12.3259 7.06842C12.7404 6.70705 13.2101 6.41132 13.7193 6.19888C13.7943 6.16763 13.8703 6.13744 13.9484 6.11036C13.7714 5.99373 13.6079 5.86043 13.4579 5.71152L13.4558 5.70943C12.8987 5.15021 12.553 4.3796 12.553 3.52984C12.553 2.67905 12.8987 1.90844 13.4579 1.34921C14.015 0.789987 14.7867 0.445312 15.6386 0.445312C16.4904 0.445312 17.262 0.791054 17.8202 1.34817L17.8421 1.37213C18.3878 1.92925 18.7241 2.69153 18.7241 3.52985C18.7241 4.37961 18.3784 5.15126 17.8202 5.71048L17.8181 5.71257C17.6692 5.86148 17.5057 5.99478 17.3287 6.11037C18.0723 6.378 18.7377 6.81849 19.2823 7.38396C20.2102 8.34827 20.785 9.68018 20.785 11.1485C20.785 11.413 20.7652 11.6785 20.7288 11.9389C20.6913 12.2003 20.635 12.4575 20.5611 12.7064V12.7084L20.559 12.7168L20.558 12.7188L20.5559 12.7261L20.5549 12.7282L20.5517 12.7355L20.5507 12.7376L20.5476 12.7449L20.5465 12.747L20.5434 12.7543L20.5424 12.7563L20.5392 12.7636L20.5382 12.7657L20.534 12.773L20.533 12.7751L20.5288 12.7824L20.5278 12.7845L20.5174 12.8011V12.8022C20.2956 13.2093 19.8832 13.5592 19.3229 13.8539C17.2194 14.9619 13.2985 15.2338 10.8909 15.2338C8.46245 15.2338 4.56473 14.962 2.46 13.8539C1.89662 13.5571 1.48215 13.2031 1.26139 12.7928L1.26034 12.7928ZM19.8041 12.4409C19.8604 12.243 19.9041 12.0379 19.9343 11.8265C19.9655 11.6099 19.9812 11.3828 19.9812 11.1485C19.9812 9.89265 19.4928 8.75753 18.7034 7.93691C17.9182 7.12048 16.8331 6.61543 15.6355 6.61543C15.0648 6.61543 14.5202 6.72998 14.0234 6.9372C13.6298 7.10174 13.2653 7.32354 12.9383 7.59325C13.333 8.05251 13.5715 8.64919 13.5715 9.30215C13.5715 10.0259 13.2778 10.682 12.804 11.1558C12.7009 11.2589 12.5905 11.3526 12.4718 11.437C12.8519 11.5984 13.206 11.816 13.5267 12.0795C14.189 12.6231 14.7076 13.3625 15.0023 14.1841C16.631 13.9727 18.0391 13.627 18.9511 13.1469C19.3624 12.9303 19.6581 12.6939 19.8039 12.4398L19.8041 12.4409ZM14.1849 14.2778C13.9319 13.6624 13.5268 13.1105 13.0207 12.696C12.4396 12.219 11.7231 11.9254 10.9494 11.9254C10.1715 11.9254 9.45088 12.2212 8.86771 12.7012C8.36266 13.1167 7.95965 13.6697 7.70866 14.2893C8.72815 14.3862 9.80806 14.4341 10.8901 14.4341C12.0117 14.4341 13.1322 14.382 14.1839 14.2779L14.1849 14.2778ZM6.88916 14.1987C7.17969 13.3729 7.69831 12.6314 8.36268 12.0847C8.6855 11.8192 9.04374 11.5984 9.42801 11.437C9.31033 11.3526 9.1989 11.2589 9.09685 11.1569C8.62304 10.683 8.32936 10.027 8.32936 9.30322C8.32936 8.67839 8.54909 8.1046 8.91461 7.65369C8.57825 7.3642 8.20022 7.12571 7.79098 6.95077C7.28489 6.73521 6.72982 6.6165 6.14769 6.6165C4.95012 6.6165 3.86501 7.12155 3.07977 7.93798C2.29042 8.75858 1.802 9.89471 1.802 11.1496C1.802 11.3829 1.81866 11.6089 1.84886 11.8265C1.87906 12.0379 1.92384 12.2451 1.98008 12.443C2.12691 12.695 2.4216 12.9314 2.83191 13.148C3.76394 13.6385 5.21456 13.9894 6.89022 14.1998L6.88916 14.1987ZM12.2386 8.01407C11.9095 7.68499 11.4534 7.47985 10.9494 7.47985C10.4464 7.47985 9.99025 7.68396 9.66119 8.01407C9.33107 8.34315 9.12697 8.79926 9.12697 9.30327C9.12697 9.80625 9.33108 10.2624 9.66119 10.5914C9.99027 10.9205 10.4464 11.1257 10.9494 11.1257C11.4523 11.1257 11.9085 10.9216 12.2386 10.5914C12.5676 10.2624 12.7728 9.80625 12.7728 9.30327C12.7728 8.8003 12.5687 8.34416 12.2386 8.01407ZM17.2529 1.91475C16.8394 1.50132 16.2677 1.24515 15.6367 1.24515C15.0056 1.24515 14.4339 1.50133 14.0205 1.91475C13.606 2.32714 13.3509 2.89884 13.3509 3.53095C13.3509 4.16307 13.606 4.73477 14.0184 5.14716C14.4318 5.56163 15.0035 5.81675 15.6356 5.81675C16.2677 5.81675 16.8394 5.56162 17.2518 5.14924C17.6663 4.73581 17.9214 4.16411 17.9214 3.53095C17.9214 2.90822 17.6736 2.34484 17.2726 1.93349L17.2529 1.91475ZM7.76171 1.91475C7.34828 1.50132 6.77658 1.24515 6.14551 1.24515C5.51443 1.24515 4.94273 1.50133 4.5293 1.91475C4.11483 2.32714 3.85971 2.89884 3.85971 3.53095C3.85971 4.16307 4.11484 4.73477 4.52722 5.14716C4.94065 5.56163 5.51235 5.81675 6.14447 5.81675C6.77658 5.81675 7.34828 5.56162 7.76067 5.14924C8.17514 4.73581 8.43027 4.16411 8.43027 3.53095C8.43027 2.90822 8.18242 2.34484 7.78149 1.93349L7.76171 1.91475Z" fill="#64748B"/>
<path d="M1.26034 12.7928L1.25514 12.7844L1.2541 12.7824L1.24993 12.7751L1.24889 12.773L1.24576 12.7657L1.24472 12.7636L1.2416 12.7563L1.24056 12.7542L1.23743 12.747L1.23639 12.7449L1.23327 12.7376L1.23223 12.7355L1.23014 12.7282L1.2291 12.7261L1.22702 12.7188L1.2239 12.7095L1.22285 12.7074L1.22077 12.698V12.697C1.14892 12.4502 1.09373 12.1961 1.05623 11.9388C1.01979 11.6785 1 11.414 1 11.1495C1 9.68117 1.57482 8.34923 2.50269 7.38497C3.04629 6.81951 3.71277 6.38006 4.45525 6.11139C4.27822 5.99476 4.11474 5.86146 3.96582 5.71254L3.96374 5.71046C3.40661 5.15123 3.06087 4.38063 3.06087 3.53087C3.06087 2.68007 3.40661 1.90947 3.96581 1.35024C4.52294 0.791015 5.29461 0.44634 6.14644 0.44634C6.99828 0.44634 7.76993 0.792081 8.32811 1.3492L8.34998 1.37315C8.89567 1.93027 9.23202 2.69256 9.23202 3.53088C9.23202 4.38064 8.88628 5.15229 8.32812 5.71151L8.32604 5.71359C8.17712 5.86251 8.01258 5.99581 7.8366 6.1114C7.92616 6.14368 8.01572 6.17909 8.1032 6.21658C8.61867 6.43631 9.09353 6.74144 9.50903 7.1132C9.92246 6.83933 10.4192 6.67999 10.9513 6.67999C11.4554 6.67999 11.926 6.82266 12.3259 7.06842C12.7404 6.70705 13.2101 6.41132 13.7193 6.19888C13.7943 6.16763 13.8703 6.13744 13.9484 6.11036C13.7714 5.99373 13.6079 5.86043 13.4579 5.71152L13.4558 5.70943C12.8987 5.15021 12.553 4.3796 12.553 3.52984C12.553 2.67905 12.8987 1.90844 13.4579 1.34921C14.015 0.789987 14.7867 0.445312 15.6386 0.445312C16.4904 0.445312 17.262 0.791054 17.8202 1.34817L17.8421 1.37213C18.3878 1.92925 18.7241 2.69153 18.7241 3.52985C18.7241 4.37961 18.3784 5.15126 17.8202 5.71048L17.8181 5.71257C17.6692 5.86148 17.5057 5.99478 17.3287 6.11037C18.0723 6.378 18.7377 6.81849 19.2823 7.38396C20.2102 8.34827 20.785 9.68018 20.785 11.1485C20.785 11.413 20.7652 11.6785 20.7288 11.9389C20.6913 12.2003 20.635 12.4575 20.5611 12.7064V12.7084L20.559 12.7168L20.558 12.7188L20.5559 12.7261L20.5549 12.7282L20.5517 12.7355L20.5507 12.7376L20.5476 12.7449L20.5465 12.747L20.5434 12.7543L20.5424 12.7563L20.5392 12.7636L20.5382 12.7657L20.534 12.773L20.533 12.7751L20.5288 12.7824L20.5278 12.7845L20.5174 12.8011V12.8022C20.2956 13.2093 19.8832 13.5592 19.3229 13.8539C17.2194 14.9619 13.2985 15.2338 10.8909 15.2338C8.46245 15.2338 4.56473 14.962 2.46 13.8539C1.89662 13.5571 1.48215 13.2031 1.26139 12.7928L1.26034 12.7928ZM19.8041 12.4409C19.8604 12.243 19.9041 12.0379 19.9343 11.8265C19.9655 11.6099 19.9812 11.3828 19.9812 11.1485C19.9812 9.89265 19.4928 8.75753 18.7034 7.93691C17.9182 7.12048 16.8331 6.61543 15.6355 6.61543C15.0648 6.61543 14.5202 6.72998 14.0234 6.9372C13.6298 7.10174 13.2653 7.32354 12.9383 7.59325C13.333 8.05251 13.5715 8.64919 13.5715 9.30215C13.5715 10.0259 13.2778 10.682 12.804 11.1558C12.7009 11.2589 12.5905 11.3526 12.4718 11.437C12.8519 11.5984 13.206 11.816 13.5267 12.0795C14.189 12.6231 14.7076 13.3625 15.0023 14.1841C16.631 13.9727 18.0391 13.627 18.9511 13.1469C19.3624 12.9303 19.6581 12.6939 19.8039 12.4398L19.8041 12.4409ZM14.1849 14.2778C13.9319 13.6624 13.5268 13.1105 13.0207 12.696C12.4396 12.219 11.7231 11.9254 10.9494 11.9254C10.1715 11.9254 9.45088 12.2212 8.86771 12.7012C8.36266 13.1167 7.95965 13.6697 7.70866 14.2893C8.72815 14.3862 9.80806 14.4341 10.8901 14.4341C12.0117 14.4341 13.1322 14.382 14.1839 14.2779L14.1849 14.2778ZM6.88916 14.1987C7.17969 13.3729 7.69831 12.6314 8.36268 12.0847C8.6855 11.8192 9.04374 11.5984 9.42801 11.437C9.31033 11.3526 9.1989 11.2589 9.09685 11.1569C8.62304 10.683 8.32936 10.027 8.32936 9.30322C8.32936 8.67839 8.54909 8.1046 8.91461 7.65369C8.57825 7.3642 8.20022 7.12571 7.79098 6.95077C7.28489 6.73521 6.72982 6.6165 6.14769 6.6165C4.95012 6.6165 3.86501 7.12155 3.07977 7.93798C2.29042 8.75858 1.802 9.89471 1.802 11.1496C1.802 11.3829 1.81866 11.6089 1.84886 11.8265C1.87906 12.0379 1.92384 12.2451 1.98008 12.443C2.12691 12.695 2.4216 12.9314 2.83191 13.148C3.76394 13.6385 5.21456 13.9894 6.89022 14.1998L6.88916 14.1987ZM12.2386 8.01407C11.9095 7.68499 11.4534 7.47985 10.9494 7.47985C10.4464 7.47985 9.99025 7.68396 9.66119 8.01407C9.33107 8.34315 9.12697 8.79926 9.12697 9.30327C9.12697 9.80625 9.33108 10.2624 9.66119 10.5914C9.99027 10.9205 10.4464 11.1257 10.9494 11.1257C11.4523 11.1257 11.9085 10.9216 12.2386 10.5914C12.5676 10.2624 12.7728 9.80625 12.7728 9.30327C12.7728 8.8003 12.5687 8.34416 12.2386 8.01407ZM17.2529 1.91475C16.8394 1.50132 16.2677 1.24515 15.6367 1.24515C15.0056 1.24515 14.4339 1.50133 14.0205 1.91475C13.606 2.32714 13.3509 2.89884 13.3509 3.53095C13.3509 4.16307 13.606 4.73477 14.0184 5.14716C14.4318 5.56163 15.0035 5.81675 15.6356 5.81675C16.2677 5.81675 16.8394 5.56162 17.2518 5.14924C17.6663 4.73581 17.9214 4.16411 17.9214 3.53095C17.9214 2.90822 17.6736 2.34484 17.2726 1.93349L17.2529 1.91475ZM7.76171 1.91475C7.34828 1.50132 6.77658 1.24515 6.14551 1.24515C5.51443 1.24515 4.94273 1.50133 4.5293 1.91475C4.11483 2.32714 3.85971 2.89884 3.85971 3.53095C3.85971 4.16307 4.11484 4.73477 4.52722 5.14716C4.94065 5.56163 5.51235 5.81675 6.14447 5.81675C6.77658 5.81675 7.34828 5.56162 7.76067 5.14924C8.17514 4.73581 8.43027 4.16411 8.43027 3.53095C8.43027 2.90822 8.18242 2.34484 7.78149 1.93349L7.76171 1.91475Z" stroke="#64748B" stroke-width="0.28" mask="url(#path-1-outside-1_1096_6265)"/>
</svg>
