<svg width="22" height="22" viewBox="0 0 22 22" fill="none" xmlns="http://www.w3.org/2000/svg">
<path d="M13.6561 13.0972C13.4075 13.0972 13.2061 13.2986 13.2061 13.5472V20.0004C13.2061 20.4938 12.8046 20.8953 12.3112 20.8953H2.69488C2.20148 20.8953 1.8 20.4938 1.8 20.0004V2.39019C1.8 1.8968 2.20148 1.49531 2.69488 1.49531H12.3112C12.8046 1.49531 13.2061 1.8968 13.2061 2.39019V8.84342C13.2061 9.09202 13.4075 9.29342 13.6561 9.29342C13.9047 9.29342 14.1061 9.09202 14.1061 8.84342V2.39019C14.1061 1.40045 13.301 0.595312 12.3112 0.595312H2.69488C1.70514 0.595312 0.9 1.40045 0.9 2.39019V20.0004C0.9 20.9902 1.70514 21.7953 2.69488 21.7953H12.3112C13.301 21.7953 14.1061 20.9902 14.1061 20.0004V13.5472C14.1061 13.2986 13.9047 13.0972 13.6561 13.0972Z" fill="#64748B" stroke="#64748B" stroke-width="0.2"/>
<path d="M21.2408 10.8779L21.2399 10.8769L17.4337 7.07073C17.258 6.89505 16.9734 6.89537 16.7972 7.07051L16.797 7.07073C16.6213 7.2464 16.6216 7.53093 16.7968 7.70717L16.797 7.70739L19.8349 10.7453H6.99063C6.74202 10.7453 6.54062 10.9467 6.54062 11.1953C6.54062 11.4439 6.74202 11.6453 6.99063 11.6453H19.8349L16.797 14.6831C16.6213 14.8588 16.6216 15.1433 16.7968 15.3196L16.797 15.3198C16.8848 15.4076 16.9998 15.4515 17.1153 15.4515C17.2298 15.4515 17.3458 15.4077 17.4337 15.3198L17.363 15.2491L17.4337 15.3198L21.2399 11.5136C21.2819 11.4716 21.3146 11.4218 21.337 11.3669L21.2455 11.3296L21.337 11.3669C21.3819 11.2569 21.3819 11.1336 21.337 11.0236C21.3142 10.9678 21.2805 10.9187 21.2408 10.8779L21.2408 10.8779Z" fill="#64748B" stroke="#64748B" stroke-width="0.2"/>
</svg>
