<svg width="17" height="23" viewBox="0 0 17 23" fill="none" xmlns="http://www.w3.org/2000/svg">
<mask id="path-1-outside-1_1097_8092" maskUnits="userSpaceOnUse" x="0" y="0.0351562" width="17" height="23" fill="black">
<rect fill="white" y="0.0351562" width="17" height="23"/>
<path fill-rule="evenodd" clip-rule="evenodd" d="M16.443 2.62514C16.248 2.44595 15.9925 2.34693 15.7277 2.34788H10.4778C10.4172 2.05003 10.2765 1.77435 10.0709 1.55055C9.91649 1.3859 9.72959 1.25511 9.52203 1.16643C9.31446 1.07776 9.09075 1.03314 8.86505 1.0354C8.48389 1.02883 8.11262 1.15681 7.81647 1.39685C7.52032 1.63689 7.31825 1.97362 7.24577 2.34788H1.98436C1.72329 2.34788 1.47292 2.45159 1.28831 2.63619C1.10371 2.8208 1 3.07117 1 3.33224V21.0507C1 21.3118 1.10371 21.5622 1.28831 21.7468C1.47292 21.9314 1.72329 22.0351 1.98436 22.0351H15.7654C15.8951 22.0364 16.0236 22.0119 16.1437 21.9629C16.2637 21.9139 16.3727 21.8414 16.4644 21.7497C16.5561 21.6581 16.6285 21.549 16.6775 21.429C16.7265 21.309 16.7511 21.1804 16.7498 21.0507V3.33224C16.7503 3.19957 16.7233 3.06824 16.6705 2.94654C16.6177 2.82483 16.5402 2.7154 16.443 2.62514ZM7.53944 3.00412C7.62646 3.00412 7.70992 2.96955 7.77146 2.90802C7.83299 2.84648 7.86756 2.76302 7.86756 2.676C7.86551 2.54505 7.89001 2.41505 7.93958 2.29383C7.98915 2.17261 8.06277 2.06269 8.15599 1.9707C8.2492 1.87871 8.36009 1.80655 8.48195 1.75859C8.60382 1.71063 8.73414 1.68785 8.86505 1.69164C9.00167 1.68776 9.13755 1.71297 9.2637 1.76557C9.38984 1.81818 9.50337 1.89699 9.59676 1.99679C9.76521 2.18296 9.85872 2.42493 9.85925 2.676C9.85925 2.76302 9.89382 2.84648 9.95536 2.90802C10.0169 2.96955 10.1004 3.00412 10.1874 3.00412H12.1561V4.97284H5.59369V3.00412H7.53944ZM16.0935 21.0507C16.0935 21.1378 16.059 21.2212 15.9974 21.2828C15.9359 21.3443 15.8524 21.3789 15.7654 21.3789H1.98436C1.89734 21.3789 1.81388 21.3443 1.75235 21.2828C1.69081 21.2212 1.65624 21.1378 1.65624 21.0507V3.33224C1.65624 3.24522 1.69081 3.16176 1.75235 3.10022C1.81388 3.03869 1.89734 3.00412 1.98436 3.00412H4.93745V5.30096C4.93745 5.38799 4.97202 5.47145 5.03355 5.53298C5.09508 5.59451 5.17854 5.62908 5.26557 5.62908H12.4842C12.5712 5.62908 12.6547 5.59451 12.7162 5.53298C12.7778 5.47145 12.8123 5.38799 12.8123 5.30096V3.00412H15.7277C15.8263 3.00252 15.9218 3.03827 15.9951 3.1042C16.0267 3.13312 16.0518 3.16839 16.0687 3.20769C16.0857 3.24699 16.0941 3.28944 16.0935 3.33224V21.0507ZM14.453 4.31641H13.7967C13.7097 4.31641 13.6262 4.35098 13.5647 4.41251C13.5032 4.47405 13.4686 4.5575 13.4686 4.64453C13.4686 4.73155 13.5032 4.81501 13.5647 4.87654C13.6262 4.93808 13.7097 4.97265 13.7967 4.97265H14.1248V19.4099H3.62499V4.97265H3.95311C4.04013 4.97265 4.12359 4.93808 4.18513 4.87654C4.24666 4.81501 4.28123 4.73155 4.28123 4.64453C4.28123 4.5575 4.24666 4.47405 4.18513 4.41251C4.12359 4.35098 4.04013 4.31641 3.95311 4.31641H3.29687C3.20985 4.31641 3.12639 4.35098 3.06485 4.41251C3.00332 4.47405 2.96875 4.5575 2.96875 4.64453V19.7381C2.96875 19.8251 3.00332 19.9086 3.06485 19.9701C3.12639 20.0316 3.20985 20.0662 3.29687 20.0662H14.453C14.54 20.0662 14.6234 20.0316 14.685 19.9701C14.7465 19.9086 14.7811 19.8251 14.7811 19.7381V4.64453C14.7811 4.5575 14.7465 4.47405 14.685 4.41251C14.6234 4.35098 14.54 4.31641 14.453 4.31641ZM11.9218 12.6914H5.32812C5.2411 12.6914 5.15764 12.6568 5.0961 12.5953C5.03457 12.5338 5 12.4503 5 12.3633C5 12.2763 5.03457 12.1928 5.0961 12.1313C5.15764 12.0697 5.2411 12.0352 5.32812 12.0352H11.9218C12.0088 12.0352 12.0923 12.0697 12.1538 12.1313C12.2154 12.1928 12.2499 12.2763 12.2499 12.3633C12.2499 12.4503 12.2154 12.5338 12.1538 12.5953C12.0923 12.6568 12.0088 12.6914 11.9218 12.6914ZM5.32812 9.6914H11.9218C12.0088 9.6914 12.0923 9.65683 12.1538 9.59529C12.2154 9.53376 12.2499 9.4503 12.2499 9.36328C12.2499 9.27625 12.2154 9.19279 12.1538 9.13126C12.0923 9.06973 12.0088 9.03516 11.9218 9.03516H5.32812C5.2411 9.03516 5.15764 9.06973 5.0961 9.13126C5.03457 9.19279 5 9.27625 5 9.36328C5 9.4503 5.03457 9.53376 5.0961 9.59529C5.15764 9.65683 5.2411 9.6914 5.32812 9.6914ZM11.0785 15.6914H5.32812C5.2411 15.6914 5.15764 15.6568 5.0961 15.5953C5.03457 15.5338 5 15.4503 5 15.3633C5 15.2763 5.03457 15.1928 5.0961 15.1313C5.15764 15.0697 5.2411 15.0352 5.32812 15.0352H11.0785C11.1656 15.0352 11.249 15.0697 11.3106 15.1313C11.3721 15.1928 11.4067 15.2763 11.4067 15.3633C11.4067 15.4503 11.3721 15.5338 11.3106 15.5953C11.249 15.6568 11.1656 15.6914 11.0785 15.6914Z"/>
</mask>
<path fill-rule="evenodd" clip-rule="evenodd" d="M16.443 2.62514C16.248 2.44595 15.9925 2.34693 15.7277 2.34788H10.4778C10.4172 2.05003 10.2765 1.77435 10.0709 1.55055C9.91649 1.3859 9.72959 1.25511 9.52203 1.16643C9.31446 1.07776 9.09075 1.03314 8.86505 1.0354C8.48389 1.02883 8.11262 1.15681 7.81647 1.39685C7.52032 1.63689 7.31825 1.97362 7.24577 2.34788H1.98436C1.72329 2.34788 1.47292 2.45159 1.28831 2.63619C1.10371 2.8208 1 3.07117 1 3.33224V21.0507C1 21.3118 1.10371 21.5622 1.28831 21.7468C1.47292 21.9314 1.72329 22.0351 1.98436 22.0351H15.7654C15.8951 22.0364 16.0236 22.0119 16.1437 21.9629C16.2637 21.9139 16.3727 21.8414 16.4644 21.7497C16.5561 21.6581 16.6285 21.549 16.6775 21.429C16.7265 21.309 16.7511 21.1804 16.7498 21.0507V3.33224C16.7503 3.19957 16.7233 3.06824 16.6705 2.94654C16.6177 2.82483 16.5402 2.7154 16.443 2.62514ZM7.53944 3.00412C7.62646 3.00412 7.70992 2.96955 7.77146 2.90802C7.83299 2.84648 7.86756 2.76302 7.86756 2.676C7.86551 2.54505 7.89001 2.41505 7.93958 2.29383C7.98915 2.17261 8.06277 2.06269 8.15599 1.9707C8.2492 1.87871 8.36009 1.80655 8.48195 1.75859C8.60382 1.71063 8.73414 1.68785 8.86505 1.69164C9.00167 1.68776 9.13755 1.71297 9.2637 1.76557C9.38984 1.81818 9.50337 1.89699 9.59676 1.99679C9.76521 2.18296 9.85872 2.42493 9.85925 2.676C9.85925 2.76302 9.89382 2.84648 9.95536 2.90802C10.0169 2.96955 10.1004 3.00412 10.1874 3.00412H12.1561V4.97284H5.59369V3.00412H7.53944ZM16.0935 21.0507C16.0935 21.1378 16.059 21.2212 15.9974 21.2828C15.9359 21.3443 15.8524 21.3789 15.7654 21.3789H1.98436C1.89734 21.3789 1.81388 21.3443 1.75235 21.2828C1.69081 21.2212 1.65624 21.1378 1.65624 21.0507V3.33224C1.65624 3.24522 1.69081 3.16176 1.75235 3.10022C1.81388 3.03869 1.89734 3.00412 1.98436 3.00412H4.93745V5.30096C4.93745 5.38799 4.97202 5.47145 5.03355 5.53298C5.09508 5.59451 5.17854 5.62908 5.26557 5.62908H12.4842C12.5712 5.62908 12.6547 5.59451 12.7162 5.53298C12.7778 5.47145 12.8123 5.38799 12.8123 5.30096V3.00412H15.7277C15.8263 3.00252 15.9218 3.03827 15.9951 3.1042C16.0267 3.13312 16.0518 3.16839 16.0687 3.20769C16.0857 3.24699 16.0941 3.28944 16.0935 3.33224V21.0507ZM14.453 4.31641H13.7967C13.7097 4.31641 13.6262 4.35098 13.5647 4.41251C13.5032 4.47405 13.4686 4.5575 13.4686 4.64453C13.4686 4.73155 13.5032 4.81501 13.5647 4.87654C13.6262 4.93808 13.7097 4.97265 13.7967 4.97265H14.1248V19.4099H3.62499V4.97265H3.95311C4.04013 4.97265 4.12359 4.93808 4.18513 4.87654C4.24666 4.81501 4.28123 4.73155 4.28123 4.64453C4.28123 4.5575 4.24666 4.47405 4.18513 4.41251C4.12359 4.35098 4.04013 4.31641 3.95311 4.31641H3.29687C3.20985 4.31641 3.12639 4.35098 3.06485 4.41251C3.00332 4.47405 2.96875 4.5575 2.96875 4.64453V19.7381C2.96875 19.8251 3.00332 19.9086 3.06485 19.9701C3.12639 20.0316 3.20985 20.0662 3.29687 20.0662H14.453C14.54 20.0662 14.6234 20.0316 14.685 19.9701C14.7465 19.9086 14.7811 19.8251 14.7811 19.7381V4.64453C14.7811 4.5575 14.7465 4.47405 14.685 4.41251C14.6234 4.35098 14.54 4.31641 14.453 4.31641ZM11.9218 12.6914H5.32812C5.2411 12.6914 5.15764 12.6568 5.0961 12.5953C5.03457 12.5338 5 12.4503 5 12.3633C5 12.2763 5.03457 12.1928 5.0961 12.1313C5.15764 12.0697 5.2411 12.0352 5.32812 12.0352H11.9218C12.0088 12.0352 12.0923 12.0697 12.1538 12.1313C12.2154 12.1928 12.2499 12.2763 12.2499 12.3633C12.2499 12.4503 12.2154 12.5338 12.1538 12.5953C12.0923 12.6568 12.0088 12.6914 11.9218 12.6914ZM5.32812 9.6914H11.9218C12.0088 9.6914 12.0923 9.65683 12.1538 9.59529C12.2154 9.53376 12.2499 9.4503 12.2499 9.36328C12.2499 9.27625 12.2154 9.19279 12.1538 9.13126C12.0923 9.06973 12.0088 9.03516 11.9218 9.03516H5.32812C5.2411 9.03516 5.15764 9.06973 5.0961 9.13126C5.03457 9.19279 5 9.27625 5 9.36328C5 9.4503 5.03457 9.53376 5.0961 9.59529C5.15764 9.65683 5.2411 9.6914 5.32812 9.6914ZM11.0785 15.6914H5.32812C5.2411 15.6914 5.15764 15.6568 5.0961 15.5953C5.03457 15.5338 5 15.4503 5 15.3633C5 15.2763 5.03457 15.1928 5.0961 15.1313C5.15764 15.0697 5.2411 15.0352 5.32812 15.0352H11.0785C11.1656 15.0352 11.249 15.0697 11.3106 15.1313C11.3721 15.1928 11.4067 15.2763 11.4067 15.3633C11.4067 15.4503 11.3721 15.5338 11.3106 15.5953C11.249 15.6568 11.1656 15.6914 11.0785 15.6914Z" fill="#64748B"/>
<path d="M15.7277 2.34788V2.56788L15.7285 2.56788L15.7277 2.34788ZM16.443 2.62514L16.5927 2.4639L16.5918 2.46315L16.443 2.62514ZM10.4778 2.34788L10.2622 2.3917L10.298 2.56788H10.4778V2.34788ZM10.0709 1.55055L10.2329 1.40168L10.2314 1.40005L10.0709 1.55055ZM9.52203 1.16643L9.60846 0.964121L9.60846 0.964121L9.52203 1.16643ZM8.86505 1.0354L8.86126 1.25545L8.86725 1.25539L8.86505 1.0354ZM7.81647 1.39685L7.955 1.56776L7.955 1.56776L7.81647 1.39685ZM7.24577 2.34788V2.56788H7.42725L7.46176 2.38971L7.24577 2.34788ZM1.28831 2.63619L1.13275 2.48063L1.13275 2.48063L1.28831 2.63619ZM1.28831 21.7468L1.13275 21.9024L1.13275 21.9024L1.28831 21.7468ZM15.7654 22.0351L15.7677 21.8151H15.7654V22.0351ZM16.1437 21.9629L16.0605 21.7592L16.0605 21.7592L16.1437 21.9629ZM16.6775 21.429L16.4739 21.3458L16.4739 21.3458L16.6775 21.429ZM16.7498 21.0507H16.5298L16.5298 21.053L16.7498 21.0507ZM16.7498 3.33224L16.5298 3.33139V3.33224H16.7498ZM16.6705 2.94654L16.8723 2.85897L16.8723 2.85897L16.6705 2.94654ZM7.77146 2.90802L7.61589 2.75245L7.61589 2.75245L7.77146 2.90802ZM7.86756 2.676L8.08759 2.676L8.08753 2.67256L7.86756 2.676ZM7.93958 2.29383L7.73595 2.21055L7.73595 2.21055L7.93958 2.29383ZM8.48195 1.75859L8.56252 1.96331L8.56252 1.96331L8.48195 1.75859ZM8.86505 1.69164L8.85868 1.91191L8.87128 1.91155L8.86505 1.69164ZM9.2637 1.76557L9.34838 1.56252L9.34838 1.56252L9.2637 1.76557ZM9.59676 1.99679L9.75991 1.84916L9.75739 1.84647L9.59676 1.99679ZM9.85925 2.676L10.0793 2.676L10.0793 2.67553L9.85925 2.676ZM12.1561 3.00412H12.3761V2.78412H12.1561V3.00412ZM12.1561 4.97284V5.19284H12.3761V4.97284H12.1561ZM5.59369 4.97284H5.37369V5.19284H5.59369V4.97284ZM5.59369 3.00412V2.78412H5.37369V3.00412H5.59369ZM15.9974 21.2828L16.153 21.4383L16.153 21.4383L15.9974 21.2828ZM1.75235 21.2828L1.59678 21.4383L1.59678 21.4383L1.75235 21.2828ZM1.75235 3.10022L1.90791 3.25579L1.90791 3.25579L1.75235 3.10022ZM4.93745 3.00412H5.15745V2.78412H4.93745V3.00412ZM5.03355 5.53298L5.18911 5.37742L5.18911 5.37742L5.03355 5.53298ZM12.7162 5.53298L12.8718 5.68854L12.8718 5.68854L12.7162 5.53298ZM12.8123 3.00412V2.78412H12.5923V3.00412H12.8123ZM15.7277 3.00412V3.22415L15.7313 3.22409L15.7277 3.00412ZM15.9951 3.1042L16.1437 2.94199L16.1422 2.94061L15.9951 3.1042ZM16.0687 3.20769L15.8667 3.29488L15.8667 3.29488L16.0687 3.20769ZM16.0935 3.33224L15.8735 3.32915V3.33224H16.0935ZM13.5647 4.41251L13.4091 4.25695L13.4091 4.25695L13.5647 4.41251ZM13.5647 4.87654L13.4091 5.03211L13.4091 5.03211L13.5647 4.87654ZM14.1248 4.97265H14.3448V4.75265H14.1248V4.97265ZM14.1248 19.4099V19.6299H14.3448V19.4099H14.1248ZM3.62499 19.4099H3.40499V19.6299H3.62499V19.4099ZM3.62499 4.97265V4.75265H3.40499V4.97265H3.62499ZM3.06485 4.41251L3.22042 4.56807L3.22042 4.56807L3.06485 4.41251ZM3.06485 19.9701L2.90929 20.1257L2.90929 20.1257L3.06485 19.9701ZM14.685 19.9701L14.8405 20.1257L14.8405 20.1256L14.685 19.9701ZM14.685 4.41251L14.8405 4.25695L14.8405 4.25695L14.685 4.41251ZM5.0961 12.1313L4.94054 11.9757L4.94054 11.9757L5.0961 12.1313ZM12.1538 12.1313L12.3094 11.9757L12.3094 11.9757L12.1538 12.1313ZM12.1538 9.13126L12.3094 8.9757L12.3094 8.9757L12.1538 9.13126ZM5.0961 9.13126L4.94054 8.9757L4.94054 8.9757L5.0961 9.13126ZM5.0961 15.1313L4.94054 14.9757L4.94054 14.9757L5.0961 15.1313ZM11.3106 15.1313L11.4661 14.9757L11.4661 14.9757L11.3106 15.1313ZM11.3106 15.5953L11.4661 15.7509L11.4661 15.7509L11.3106 15.5953ZM15.7285 2.56788C15.9379 2.56713 16.1399 2.64543 16.2941 2.78714L16.5918 2.46315C16.356 2.24646 16.0471 2.12673 15.7269 2.12788L15.7285 2.56788ZM10.4778 2.56788H15.7277V2.12788H10.4778V2.56788ZM9.90889 1.6994C10.0875 1.89372 10.2096 2.13309 10.2622 2.3917L10.6934 2.30405C10.6248 1.96697 10.4656 1.65498 10.2329 1.40169L9.90889 1.6994ZM9.4356 1.36874C9.61516 1.44546 9.77685 1.55861 9.91042 1.70104L10.2314 1.40005C10.0561 1.2132 9.84402 1.06476 9.60846 0.964121L9.4356 1.36874ZM8.86725 1.25539C9.0625 1.25343 9.25603 1.29203 9.4356 1.36874L9.60846 0.964121C9.37289 0.863484 9.119 0.812845 8.86285 0.815408L8.86725 1.25539ZM7.955 1.56776C8.21095 1.3603 8.53184 1.24969 8.86126 1.25536L8.86884 0.81543C8.43595 0.80797 8.01429 0.953321 7.67794 1.22594L7.955 1.56776ZM7.46176 2.38971C7.5244 2.06625 7.69905 1.77522 7.955 1.56776L7.67794 1.22594C7.3416 1.49856 7.11211 1.881 7.02979 2.30605L7.46176 2.38971ZM1.98436 2.56788H7.24577V2.12788H1.98436V2.56788ZM1.44388 2.79176C1.58722 2.64841 1.78164 2.56788 1.98436 2.56788V2.12788C1.66494 2.12788 1.35861 2.25477 1.13275 2.48063L1.44388 2.79176ZM1.22 3.33224C1.22 3.12952 1.30053 2.9351 1.44388 2.79176L1.13275 2.48063C0.906888 2.70649 0.78 3.01282 0.78 3.33224H1.22ZM1.22 21.0507V3.33224H0.78V21.0507H1.22ZM1.44388 21.5912C1.30053 21.4479 1.22 21.2535 1.22 21.0507H0.78C0.78 21.3702 0.906888 21.6765 1.13275 21.9024L1.44388 21.5912ZM1.98436 21.8151C1.78164 21.8151 1.58722 21.7346 1.44388 21.5912L1.13275 21.9024C1.35861 22.1282 1.66494 22.2551 1.98436 22.2551V21.8151ZM15.7654 21.8151H1.98436V22.2551H15.7654V21.8151ZM16.0605 21.7592C15.9676 21.7971 15.868 21.8161 15.7677 21.8151L15.7632 22.2551C15.9221 22.2567 16.0797 22.2266 16.2268 22.1665L16.0605 21.7592ZM16.3088 21.5942C16.2379 21.6651 16.1534 21.7212 16.0605 21.7592L16.2268 22.1665C16.3739 22.1065 16.5076 22.0177 16.62 21.9053L16.3088 21.5942ZM16.4739 21.3458C16.4359 21.4388 16.3798 21.5232 16.3088 21.5942L16.62 21.9053C16.7323 21.7929 16.8211 21.6593 16.8812 21.5122L16.4739 21.3458ZM16.5298 21.053C16.5308 21.1533 16.5118 21.2529 16.4739 21.3458L16.8812 21.5122C16.9413 21.365 16.9714 21.2074 16.9698 21.0485L16.5298 21.053ZM16.5298 3.33224V21.0507H16.9698V3.33224H16.5298ZM16.4687 3.0341C16.5094 3.12791 16.5302 3.22914 16.5298 3.33139L16.9698 3.33309C16.9704 3.17001 16.9372 3.00858 16.8723 2.85897L16.4687 3.0341ZM16.2933 2.78638C16.3683 2.85595 16.428 2.9403 16.4687 3.0341L16.8723 2.85897C16.8074 2.70937 16.7122 2.57485 16.5927 2.4639L16.2933 2.78638ZM7.61589 2.75245C7.59562 2.77273 7.56812 2.78412 7.53944 2.78412V3.22412C7.68481 3.22412 7.82423 3.16637 7.92702 3.06358L7.61589 2.75245ZM7.64756 2.676C7.64756 2.70467 7.63617 2.73218 7.61589 2.75245L7.92702 3.06358C8.02981 2.96079 8.08756 2.82137 8.08756 2.676H7.64756ZM7.73595 2.21055C7.67513 2.35928 7.64507 2.51878 7.64759 2.67944L8.08753 2.67256C8.08595 2.57132 8.10489 2.47081 8.14322 2.3771L7.73595 2.21055ZM8.00146 1.81411C7.88709 1.92697 7.79677 2.06183 7.73595 2.21055L8.14322 2.3771C8.18154 2.28338 8.23845 2.1984 8.31052 2.12729L8.00146 1.81411ZM8.40139 1.55388C8.25187 1.61272 8.11582 1.70124 8.00146 1.81411L8.31052 2.12729C8.38258 2.05617 8.46831 2.00039 8.56252 1.96331L8.40139 1.55388ZM8.8714 1.47173C8.71079 1.46709 8.5509 1.49503 8.40139 1.55388L8.56252 1.96331C8.65674 1.92623 8.75749 1.90862 8.85869 1.91155L8.8714 1.47173ZM9.34838 1.56252C9.19346 1.49792 9.02659 1.46697 8.85881 1.47173L8.87128 1.91155C8.97675 1.90856 9.08164 1.92801 9.17902 1.96862L9.34838 1.56252ZM9.75739 1.84647C9.64271 1.72392 9.50329 1.62713 9.34838 1.56252L9.17902 1.96862C9.2764 2.00923 9.36403 2.07007 9.43612 2.14711L9.75739 1.84647ZM10.0793 2.67553C10.0786 2.37008 9.96483 2.07569 9.75989 1.84918L9.43362 2.1444C9.56558 2.29024 9.63884 2.47979 9.63925 2.67646L10.0793 2.67553ZM10.1109 2.75245C10.0906 2.73218 10.0793 2.70468 10.0793 2.676H9.63925C9.63925 2.82137 9.697 2.96079 9.79979 3.06358L10.1109 2.75245ZM10.1874 2.78412C10.1587 2.78412 10.1312 2.77273 10.1109 2.75245L9.79979 3.06358C9.90259 3.16637 10.042 3.22412 10.1874 3.22412V2.78412ZM12.1561 2.78412H10.1874V3.22412H12.1561V2.78412ZM12.3761 4.97284V3.00412H11.9361V4.97284H12.3761ZM5.59369 5.19284H12.1561V4.75284H5.59369V5.19284ZM5.37369 3.00412V4.97284H5.81369V3.00412H5.37369ZM7.53944 2.78412H5.59369V3.22412H7.53944V2.78412ZM16.153 21.4383C16.2558 21.3355 16.3135 21.1961 16.3135 21.0507H15.8735C15.8735 21.0794 15.8622 21.1069 15.8419 21.1272L16.153 21.4383ZM15.7654 21.5989C15.9108 21.5989 16.0502 21.5411 16.153 21.4383L15.8419 21.1272C15.8216 21.1475 15.7941 21.1589 15.7654 21.1589V21.5989ZM1.98436 21.5989H15.7654V21.1589H1.98436V21.5989ZM1.59678 21.4383C1.69957 21.5411 1.83899 21.5989 1.98436 21.5989V21.1589C1.95569 21.1589 1.92819 21.1475 1.90791 21.1272L1.59678 21.4383ZM1.43624 21.0507C1.43624 21.1961 1.49399 21.3355 1.59678 21.4383L1.90791 21.1272C1.88763 21.1069 1.87624 21.0794 1.87624 21.0507H1.43624ZM1.43624 3.33224V21.0507H1.87624V3.33224H1.43624ZM1.59678 2.94466C1.49399 3.04745 1.43624 3.18687 1.43624 3.33224H1.87624C1.87624 3.30357 1.88763 3.27606 1.90791 3.25579L1.59678 2.94466ZM1.98436 2.78412C1.83899 2.78412 1.69957 2.84187 1.59678 2.94466L1.90791 3.25579C1.92819 3.23551 1.95569 3.22412 1.98436 3.22412V2.78412ZM4.93745 2.78412H1.98436V3.22412H4.93745V2.78412ZM5.15745 5.30096V3.00412H4.71745V5.30096H5.15745ZM5.18911 5.37742C5.16884 5.35714 5.15745 5.32964 5.15745 5.30096H4.71745C4.71745 5.44633 4.77519 5.58575 4.87799 5.68854L5.18911 5.37742ZM5.26557 5.40908C5.23689 5.40908 5.20939 5.39769 5.18911 5.37742L4.87799 5.68854C4.98078 5.79134 5.1202 5.84908 5.26557 5.84908V5.40908ZM12.4842 5.40908H5.26557V5.84908H12.4842V5.40908ZM12.5607 5.37742C12.5404 5.39769 12.5129 5.40908 12.4842 5.40908V5.84908C12.6296 5.84908 12.769 5.79134 12.8718 5.68854L12.5607 5.37742ZM12.5923 5.30096C12.5923 5.32964 12.5809 5.35714 12.5607 5.37742L12.8718 5.68854C12.9746 5.58575 13.0323 5.44633 13.0323 5.30096H12.5923ZM12.5923 3.00412V5.30096H13.0323V3.00412H12.5923ZM15.7277 2.78412H12.8123V3.22412H15.7277V2.78412ZM16.1422 2.94061C16.0276 2.83754 15.8782 2.78165 15.7241 2.78415L15.7313 3.22409C15.7743 3.22339 15.816 3.239 15.848 3.26778L16.1422 2.94061ZM16.2707 3.1205C16.2414 3.05271 16.1982 2.99187 16.1437 2.94199L15.8465 3.2664C15.8552 3.27436 15.8621 3.28406 15.8667 3.29488L16.2707 3.1205ZM16.3135 3.33533C16.3146 3.26151 16.3 3.18829 16.2707 3.1205L15.8667 3.29488C15.8714 3.30569 15.8737 3.31737 15.8736 3.32915L16.3135 3.33533ZM16.3135 21.0507V3.33224H15.8735V21.0507H16.3135ZM13.7967 4.53641H14.453V4.09641H13.7967V4.53641ZM13.7203 4.56807C13.7405 4.5478 13.7681 4.53641 13.7967 4.53641V4.09641C13.6514 4.09641 13.5119 4.15415 13.4091 4.25695L13.7203 4.56807ZM13.6886 4.64453C13.6886 4.61585 13.7 4.58835 13.7203 4.56807L13.4091 4.25695C13.3064 4.35974 13.2486 4.49916 13.2486 4.64453H13.6886ZM13.7203 4.72098C13.7 4.7007 13.6886 4.6732 13.6886 4.64453H13.2486C13.2486 4.7899 13.3064 4.92931 13.4091 5.03211L13.7203 4.72098ZM13.7967 4.75265C13.7681 4.75265 13.7405 4.74126 13.7203 4.72098L13.4091 5.03211C13.5119 5.1349 13.6514 5.19265 13.7967 5.19265V4.75265ZM14.1248 4.75265H13.7967V5.19265H14.1248V4.75265ZM14.3448 19.4099V4.97265H13.9048V19.4099H14.3448ZM3.62499 19.6299H14.1248V19.1899H3.62499V19.6299ZM3.40499 4.97265V19.4099H3.84499V4.97265H3.40499ZM3.95311 4.75265H3.62499V5.19265H3.95311V4.75265ZM4.02956 4.72098C4.00929 4.74126 3.98179 4.75265 3.95311 4.75265V5.19265C4.09848 5.19265 4.2379 5.1349 4.34069 5.03211L4.02956 4.72098ZM4.06123 4.64453C4.06123 4.6732 4.04984 4.7007 4.02956 4.72098L4.34069 5.03211C4.44348 4.92931 4.50123 4.7899 4.50123 4.64453H4.06123ZM4.02956 4.56807C4.04984 4.58835 4.06123 4.61585 4.06123 4.64453H4.50123C4.50123 4.49916 4.44348 4.35974 4.34069 4.25695L4.02956 4.56807ZM3.95311 4.53641C3.98179 4.53641 4.00929 4.5478 4.02956 4.56807L4.34069 4.25695C4.2379 4.15415 4.09848 4.09641 3.95311 4.09641V4.53641ZM3.29687 4.53641H3.95311V4.09641H3.29687V4.53641ZM3.22042 4.56807C3.24069 4.5478 3.2682 4.53641 3.29687 4.53641V4.09641C3.1515 4.09641 3.01208 4.15415 2.90929 4.25695L3.22042 4.56807ZM3.18875 4.64453C3.18875 4.61585 3.20014 4.58835 3.22042 4.56807L2.90929 4.25695C2.8065 4.35974 2.74875 4.49916 2.74875 4.64453H3.18875ZM3.18875 19.7381V4.64453H2.74875V19.7381H3.18875ZM3.22042 19.8145C3.20014 19.7942 3.18875 19.7667 3.18875 19.7381H2.74875C2.74875 19.8834 2.8065 20.0229 2.90929 20.1257L3.22042 19.8145ZM3.29687 19.8462C3.2682 19.8462 3.24069 19.8348 3.22042 19.8145L2.90929 20.1257C3.01208 20.2284 3.1515 20.2862 3.29687 20.2862V19.8462ZM14.453 19.8462H3.29687V20.2862H14.453V19.8462ZM14.5294 19.8145C14.5091 19.8348 14.4816 19.8462 14.453 19.8462V20.2862C14.5983 20.2862 14.7378 20.2284 14.8405 20.1257L14.5294 19.8145ZM14.5611 19.7381C14.5611 19.7667 14.5497 19.7942 14.5294 19.8145L14.8405 20.1256C14.9433 20.0229 15.0011 19.8834 15.0011 19.7381H14.5611ZM14.5611 4.64453V19.7381H15.0011V4.64453H14.5611ZM14.5294 4.56807C14.5497 4.58835 14.5611 4.61585 14.5611 4.64453H15.0011C15.0011 4.49916 14.9433 4.35974 14.8405 4.25695L14.5294 4.56807ZM14.453 4.53641C14.4816 4.53641 14.5091 4.5478 14.5294 4.56807L14.8405 4.25695C14.7378 4.15415 14.5983 4.09641 14.453 4.09641V4.53641ZM5.32812 12.9114H11.9218V12.4714H5.32812V12.9114ZM4.94054 12.7509C5.04333 12.8537 5.18275 12.9114 5.32812 12.9114V12.4714C5.29944 12.4714 5.27194 12.46 5.25167 12.4397L4.94054 12.7509ZM4.78 12.3633C4.78 12.5086 4.83775 12.6481 4.94054 12.7509L5.25167 12.4397C5.23139 12.4195 5.22 12.392 5.22 12.3633H4.78ZM4.94054 11.9757C4.83775 12.0785 4.78 12.2179 4.78 12.3633H5.22C5.22 12.3346 5.23139 12.3071 5.25167 12.2868L4.94054 11.9757ZM5.32812 11.8152C5.18275 11.8152 5.04333 11.8729 4.94054 11.9757L5.25167 12.2868C5.27194 12.2665 5.29944 12.2552 5.32812 12.2552V11.8152ZM11.9218 11.8152H5.32812V12.2552H11.9218V11.8152ZM12.3094 11.9757C12.2066 11.8729 12.0672 11.8152 11.9218 11.8152V12.2552C11.9505 12.2552 11.978 12.2665 11.9983 12.2868L12.3094 11.9757ZM12.4699 12.3633C12.4699 12.2179 12.4122 12.0785 12.3094 11.9757L11.9983 12.2868C12.0185 12.3071 12.0299 12.3346 12.0299 12.3633H12.4699ZM12.3094 12.7509C12.4122 12.6481 12.4699 12.5086 12.4699 12.3633H12.0299C12.0299 12.392 12.0185 12.4195 11.9983 12.4397L12.3094 12.7509ZM11.9218 12.9114C12.0672 12.9114 12.2066 12.8537 12.3094 12.7509L11.9983 12.4397C11.978 12.46 11.9505 12.4714 11.9218 12.4714V12.9114ZM11.9218 9.4714H5.32812V9.9114H11.9218V9.4714ZM11.9983 9.43973C11.978 9.46001 11.9505 9.4714 11.9218 9.4714V9.9114C12.0672 9.9114 12.2066 9.85365 12.3094 9.75086L11.9983 9.43973ZM12.0299 9.36328C12.0299 9.39195 12.0185 9.41945 11.9983 9.43973L12.3094 9.75086C12.4122 9.64806 12.4699 9.50865 12.4699 9.36328H12.0299ZM11.9983 9.28682C12.0185 9.3071 12.0299 9.3346 12.0299 9.36328H12.4699C12.4699 9.21791 12.4122 9.07849 12.3094 8.9757L11.9983 9.28682ZM11.9218 9.25516C11.9505 9.25516 11.978 9.26655 11.9983 9.28682L12.3094 8.9757C12.2066 8.8729 12.0672 8.81516 11.9218 8.81516V9.25516ZM5.32812 9.25516H11.9218V8.81516H5.32812V9.25516ZM5.25167 9.28682C5.27194 9.26655 5.29944 9.25516 5.32812 9.25516V8.81516C5.18275 8.81516 5.04333 8.8729 4.94054 8.9757L5.25167 9.28682ZM5.22 9.36328C5.22 9.3346 5.23139 9.3071 5.25167 9.28682L4.94054 8.9757C4.83775 9.07849 4.78 9.21791 4.78 9.36328H5.22ZM5.25167 9.43973C5.23139 9.41945 5.22 9.39195 5.22 9.36328H4.78C4.78 9.50865 4.83775 9.64806 4.94054 9.75086L5.25167 9.43973ZM5.32812 9.4714C5.29944 9.4714 5.27194 9.46001 5.25167 9.43973L4.94054 9.75086C5.04333 9.85365 5.18275 9.9114 5.32812 9.9114V9.4714ZM5.32812 15.9114H11.0785V15.4714H5.32812V15.9114ZM4.94054 15.7509C5.04333 15.8537 5.18275 15.9114 5.32812 15.9114V15.4714C5.29944 15.4714 5.27194 15.46 5.25167 15.4397L4.94054 15.7509ZM4.78 15.3633C4.78 15.5086 4.83775 15.6481 4.94054 15.7509L5.25167 15.4397C5.23139 15.4195 5.22 15.392 5.22 15.3633H4.78ZM4.94054 14.9757C4.83775 15.0785 4.78 15.2179 4.78 15.3633H5.22C5.22 15.3346 5.23139 15.3071 5.25167 15.2868L4.94054 14.9757ZM5.32812 14.8152C5.18275 14.8152 5.04333 14.8729 4.94054 14.9757L5.25167 15.2868C5.27194 15.2665 5.29944 15.2552 5.32812 15.2552V14.8152ZM11.0785 14.8152H5.32812V15.2552H11.0785V14.8152ZM11.4661 14.9757C11.3633 14.8729 11.2239 14.8152 11.0785 14.8152V15.2552C11.1072 15.2552 11.1347 15.2665 11.155 15.2868L11.4661 14.9757ZM11.6267 15.3633C11.6267 15.2179 11.5689 15.0785 11.4661 14.9757L11.155 15.2868C11.1753 15.3071 11.1867 15.3346 11.1867 15.3633H11.6267ZM11.4661 15.7509C11.5689 15.6481 11.6267 15.5086 11.6267 15.3633H11.1867C11.1867 15.392 11.1753 15.4195 11.155 15.4397L11.4661 15.7509ZM11.0785 15.9114C11.2239 15.9114 11.3633 15.8537 11.4661 15.7509L11.155 15.4397C11.1347 15.46 11.1072 15.4714 11.0785 15.4714V15.9114Z" fill="#64748B" mask="url(#path-1-outside-1_1097_8092)"/>
</svg>
