<svg width="58" height="58" viewBox="0 0 58 58" fill="none" xmlns="http://www.w3.org/2000/svg">
<circle cx="29" cy="29" r="29" fill="#F7F7F7"/>
<path d="M28.9987 17.3335C25.942 17.3335 23.457 19.8185 23.457 22.8752C23.457 25.8735 25.802 28.3002 28.8587 28.4052C28.952 28.3935 29.0454 28.3935 29.1154 28.4052C29.1387 28.4052 29.1504 28.4052 29.1737 28.4052C29.1854 28.4052 29.1854 28.4052 29.197 28.4052C32.1837 28.3002 34.5287 25.8735 34.5404 22.8752C34.5404 19.8185 32.0554 17.3335 28.9987 17.3335Z" fill="#D0D0D0"/>
<path d="M34.9252 31.5084C31.6702 29.3384 26.3618 29.3384 23.0835 31.5084C21.6018 32.5 20.7852 33.8417 20.7852 35.2767C20.7852 36.7117 21.6018 38.0417 23.0718 39.0217C24.7052 40.1184 26.8518 40.6667 28.9985 40.6667C31.1452 40.6667 33.2918 40.1184 34.9252 39.0217C36.3952 38.03 37.2118 36.7 37.2118 35.2534C37.2002 33.8184 36.3952 32.4884 34.9252 31.5084Z" fill="#D0D0D0"/>
</svg>
