<svg width="19" height="19" viewBox="0 0 19 19" fill="none" xmlns="http://www.w3.org/2000/svg">
<path d="M6.64571 18.684C6.50142 18.684 6.35713 18.6547 6.21284 18.6265C5.80929 18.4822 5.40459 18.3086 5.00103 18.1361C4.42387 17.8476 4.16461 17.2129 4.3089 16.5783C4.45319 15.9718 4.27959 15.3371 3.81854 14.8761C3.35635 14.4139 2.72171 14.2415 2.11638 14.3857C1.48173 14.53 0.847085 14.2415 0.558504 13.6936C0.356722 13.3182 0.183118 12.8854 0.0681473 12.4818C-0.133634 11.8753 0.125639 11.2407 0.674629 10.8946C1.22247 10.5767 1.54037 9.99955 1.54037 9.3649C1.54037 8.73026 1.22247 8.15309 0.674629 7.83519C0.126787 7.48913 -0.133628 6.82516 0.0681473 6.248C0.212438 5.84445 0.386048 5.43974 0.558504 5.03619C0.847085 4.45903 1.48173 4.19977 2.11638 4.34406C2.72286 4.48835 3.35751 4.31475 3.81854 3.8537C4.28074 3.39151 4.45319 2.75686 4.3089 2.15154C4.16461 1.51689 4.45319 0.882241 5.00103 0.59366C5.37642 0.391879 5.80929 0.218274 6.21284 0.103304C6.81932 -0.098478 7.45397 0.160795 7.80004 0.709785C8.11794 1.25763 8.6951 1.57553 9.32975 1.57553C9.96439 1.57553 10.5416 1.25763 10.8595 0.709785C11.2055 0.161943 11.8695 -0.0984722 12.4467 0.103304C12.8502 0.247594 13.2549 0.421204 13.6585 0.59366C14.2356 0.882241 14.4949 1.51689 14.3506 2.15154C14.2063 2.75802 14.3799 3.39266 14.8409 3.8537C15.3031 4.31589 15.9378 4.48835 16.5431 4.34406C17.1778 4.19977 17.8124 4.48835 18.101 5.03619C18.3028 5.41158 18.4764 5.84445 18.5913 6.248C18.7931 6.85448 18.5339 7.48913 17.9849 7.83519C17.437 8.15309 17.1191 8.73026 17.1191 9.3649C17.1191 9.99955 17.437 10.5767 17.9849 10.8946C18.5327 11.2407 18.7931 11.9046 18.5913 12.4818C18.4471 12.8854 18.2734 13.2901 18.101 13.6936C17.8124 14.2708 17.1778 14.53 16.5431 14.3857C15.9366 14.2415 15.302 14.4151 14.8409 14.8761C14.3788 15.3383 14.2063 15.9729 14.3506 16.5783C14.4949 17.2129 14.2063 17.8476 13.6585 18.1361C13.2831 18.3379 12.8502 18.5115 12.4467 18.6265C11.8402 18.8283 11.2055 18.569 10.8595 18.02C10.5416 17.4722 9.96439 17.1543 9.32975 17.1543C8.6951 17.1543 8.11794 17.4722 7.80004 18.02C7.53964 18.4247 7.10678 18.684 6.64571 18.684ZM2.57615 13.2595C3.32692 13.2595 4.04837 13.5481 4.59621 14.096C5.31766 14.8174 5.60625 15.8274 5.34698 16.8082C5.31768 16.9231 5.34698 17.0967 5.49127 17.1542C5.83734 17.3278 6.21273 17.4721 6.55879 17.5871C6.70308 17.6446 6.84737 17.5296 6.90486 17.4135C7.42454 16.5478 8.34776 16.0574 9.3578 16.0574C10.3678 16.0574 11.2911 16.5771 11.8107 17.4135C11.8682 17.5285 12.0125 17.6153 12.1568 17.5871C12.5322 17.4721 12.8783 17.3278 13.2243 17.1542C13.3686 17.0967 13.3979 16.9231 13.3686 16.8082C13.1375 15.8274 13.4261 14.8174 14.1194 14.096C14.8408 13.3745 15.8509 13.0859 16.8316 13.3452C16.9466 13.3745 17.1202 13.3452 17.1776 13.2009C17.3512 12.8548 17.4955 12.4794 17.6105 12.1334C17.668 11.9891 17.553 11.8448 17.4369 11.7873C16.5712 11.2676 16.0808 10.3444 16.0808 9.33438C16.0808 8.32434 16.6005 7.40112 17.4369 6.88144C17.5519 6.82395 17.6387 6.67966 17.6105 6.53537C17.4955 6.15999 17.3512 5.81392 17.1776 5.46786C17.1202 5.32356 16.9466 5.29426 16.8316 5.32356C15.8509 5.55465 14.8408 5.26607 14.1194 4.57279C13.3979 3.85134 13.1093 2.84131 13.3686 1.86059C13.3979 1.74561 13.3686 1.57201 13.2243 1.51453C12.8783 1.34093 12.5029 1.19663 12.1568 1.08166C12.0125 1.02417 11.8682 1.13915 11.8107 1.25526C11.2911 2.121 10.3678 2.61135 9.3578 2.61135C8.34776 2.61135 7.42454 2.09168 6.90486 1.25526C6.84737 1.14027 6.70308 1.05347 6.55879 1.11096C6.18341 1.22595 5.83734 1.37024 5.49127 1.54384C5.34698 1.60133 5.31768 1.77493 5.34698 1.8899C5.57807 2.87062 5.28949 3.88065 4.59621 4.6021C3.87476 5.32355 2.86473 5.58281 1.88401 5.35287C1.76903 5.32356 1.59543 5.35287 1.53795 5.49716C1.36435 5.84323 1.22005 6.21862 1.10508 6.56468C1.04758 6.70897 1.16257 6.85326 1.24937 6.91075C2.11511 7.43042 2.60547 8.35365 2.60547 9.36368C2.60547 10.3737 2.08579 11.2969 1.24937 11.8166C1.13438 11.8741 1.04758 12.0184 1.10508 12.1627C1.22006 12.5381 1.36435 12.8841 1.53795 13.2302C1.59544 13.3745 1.76904 13.4038 1.88401 13.3745C2.11398 13.2877 2.34508 13.2595 2.57615 13.2595Z" fill="#64748B"/>
<path d="M9.35835 13.3437C7.16468 13.3437 5.34766 11.5547 5.34766 9.33296C5.34766 7.13929 7.13663 5.32227 9.35835 5.32227C11.552 5.32227 13.369 7.11124 13.369 9.33296C13.369 11.5266 11.5519 13.3437 9.35835 13.3437ZM9.35835 6.38944C7.74184 6.38944 6.41512 7.71737 6.41512 9.33267C6.41512 10.9492 7.74305 12.2759 9.35835 12.2759C10.9749 12.2759 12.3016 10.948 12.3016 9.33267C12.3016 7.71616 10.9748 6.38944 9.35835 6.38944Z" fill="#64748B"/>
</svg>
